<svg width="569" height="100" viewBox="0 0 569 100" fill="none" xmlns="http://www.w3.org/2000/svg">
<rect width="569" height="100" fill="#DDDDDD"/>
<g clip-path="url(#clip0)">
<rect width="569" height="100" fill="white"/>
<path d="M548 90H569" stroke="#F5804E" stroke-width="3"/>
<path d="M-1 90L87 90" stroke="#F5804E" stroke-width="3"/>
<path d="M87 90C89.3333 90 93.3 90 90.5 90H94L99 76" stroke="#F5804E" stroke-width="3"/>
</g>
<g clip-path="url(#clip1)">
<rect width="569" height="86" fill="#2A615D"/>
<path d="M120.281 77.5H105.25L102.625 86H90.9062L107.594 40.5H117.906L134.719 86H122.938L120.281 77.5ZM107.875 69.0312H117.656L112.75 53.25L107.875 69.0312ZM149.031 77.5625H168.125V86H138.062V40.5H149.031V77.5625ZM200.969 66.7188H183.719V77.5625H204.094V86H172.75V40.5H204.156V48.9688H183.719V58.5625H200.969V66.7188ZM225.469 69.9375H219.531V86H208.562V40.5H226.469C231.865 40.5 236.083 41.6979 239.125 44.0938C242.167 46.4896 243.688 49.875 243.688 54.25C243.688 57.4167 243.042 60.0417 241.75 62.125C240.479 64.2083 238.479 65.8958 235.75 67.1875L245.25 85.5312V86H233.5L225.469 69.9375ZM219.531 61.4688H226.469C228.552 61.4688 230.115 60.9271 231.156 59.8438C232.219 58.7396 232.75 57.2083 232.75 55.25C232.75 53.2917 232.219 51.7604 231.156 50.6562C230.094 49.5312 228.531 48.9688 226.469 48.9688H219.531V61.4688ZM284.469 48.9688H270.812V86H259.844V48.9688H246.438V40.5H284.469V48.9688ZM340 70.5938C339.854 73.7604 339 76.5625 337.438 79C335.875 81.4167 333.677 83.2917 330.844 84.625C328.031 85.9583 324.812 86.625 321.188 86.625C315.208 86.625 310.5 84.6771 307.062 80.7812C303.625 76.8854 301.906 71.3854 301.906 64.2812V62.0312C301.906 57.5729 302.677 53.6771 304.219 50.3438C305.781 46.9896 308.021 44.4062 310.938 42.5938C313.854 40.7604 317.229 39.8438 321.062 39.8438C326.583 39.8438 331.021 41.3021 334.375 44.2188C337.729 47.1146 339.635 51.1146 340.094 56.2188H329.156C329.073 53.4479 328.375 51.4583 327.062 50.25C325.75 49.0417 323.75 48.4375 321.062 48.4375C318.333 48.4375 316.333 49.4583 315.062 51.5C313.792 53.5417 313.125 56.8021 313.062 61.2812V64.5C313.062 69.3542 313.667 72.8229 314.875 74.9062C316.104 76.9896 318.208 78.0312 321.188 78.0312C323.708 78.0312 325.635 77.4375 326.969 76.25C328.302 75.0625 329.01 73.1771 329.094 70.5938H340ZM373.406 66.7188H356.156V77.5625H376.531V86H345.188V40.5H376.594V48.9688H356.156V58.5625H373.406V66.7188ZM419 86H408.094L391.969 57.6875V86H381V40.5H391.969L408.062 68.8125V40.5H419V86ZM464.469 64.1875C464.469 68.625 463.646 72.5521 462 75.9688C460.354 79.3854 458.01 82.0208 454.969 83.875C451.948 85.7083 448.5 86.625 444.625 86.625C440.75 86.625 437.312 85.7396 434.312 83.9688C431.312 82.1771 428.969 79.625 427.281 76.3125C425.615 73 424.74 69.1979 424.656 64.9062V62.3438C424.656 57.8854 425.469 53.9583 427.094 50.5625C428.74 47.1458 431.083 44.5104 434.125 42.6562C437.188 40.8021 440.667 39.875 444.562 39.875C448.417 39.875 451.854 40.7917 454.875 42.625C457.896 44.4583 460.24 47.0729 461.906 50.4688C463.594 53.8438 464.448 57.7188 464.469 62.0938V64.1875ZM453.312 62.2812C453.312 57.7604 452.552 54.3333 451.031 52C449.531 49.6458 447.375 48.4688 444.562 48.4688C439.062 48.4688 436.156 52.5938 435.844 60.8438L435.812 64.1875C435.812 68.6458 436.552 72.0729 438.031 74.4688C439.51 76.8646 441.708 78.0625 444.625 78.0625C447.396 78.0625 449.531 76.8854 451.031 74.5312C452.531 72.1771 453.292 68.7917 453.312 64.375V62.2812ZM505.375 69.0312L510.594 40.5H521.469L511.812 86H500.438L494.344 60.0625L488.375 86H477.031L467.344 40.5H478.25L483.469 69.0312L489.719 40.5H499.031L505.375 69.0312ZM542.406 60.25L550.781 40.5H562.625L547.969 69.6562V86H536.844V69.6562L522.219 40.5H534L542.406 60.25Z" fill="white"/>
<path d="M112 41L90 101" stroke="#F5804E" stroke-width="3"/>
</g>
<defs>
<clipPath id="clip0">
<rect width="569" height="100" fill="white"/>
</clipPath>
<clipPath id="clip1">
<rect width="569" height="86" fill="white"/>
</clipPath>
</defs>
</svg>
