<svg width="1600" height="95" viewBox="0 0 1600 95" fill="none" xmlns="http://www.w3.org/2000/svg">
<rect width="1600" height="95" fill="#DDDDDD"/>
<path d="M548 93L1600 93" stroke="#F5804E" stroke-width="3"/>
<path d="M0 93L90 93" stroke="#F5804E" stroke-width="3"/>
<path d="M86 93C88.3333 93 92.3 93 89.5 93H93L98 79" stroke="#F5804E" stroke-width="3"/>
<g clip-path="url(#clip0)">
<rect width="1600" height="90" fill="#2A615D"/>
<path d="M120.281 83.5H105.25L102.625 92H90.9062L107.594 46.5H117.906L134.719 92H122.938L120.281 83.5ZM107.875 75.0312H117.656L112.75 59.25L107.875 75.0312ZM149.031 83.5625H168.125V92H138.062V46.5H149.031V83.5625ZM200.969 72.7188H183.719V83.5625H204.094V92H172.75V46.5H204.156V54.9688H183.719V64.5625H200.969V72.7188ZM225.469 75.9375H219.531V92H208.562V46.5H226.469C231.865 46.5 236.083 47.6979 239.125 50.0938C242.167 52.4896 243.688 55.875 243.688 60.25C243.688 63.4167 243.042 66.0417 241.75 68.125C240.479 70.2083 238.479 71.8958 235.75 73.1875L245.25 91.5312V92H233.5L225.469 75.9375ZM219.531 67.4688H226.469C228.552 67.4688 230.115 66.9271 231.156 65.8438C232.219 64.7396 232.75 63.2083 232.75 61.25C232.75 59.2917 232.219 57.7604 231.156 56.6562C230.094 55.5312 228.531 54.9688 226.469 54.9688H219.531V67.4688ZM284.469 54.9688H270.812V92H259.844V54.9688H246.438V46.5H284.469V54.9688ZM340 76.5938C339.854 79.7604 339 82.5625 337.438 85C335.875 87.4167 333.677 89.2917 330.844 90.625C328.031 91.9583 324.812 92.625 321.188 92.625C315.208 92.625 310.5 90.6771 307.062 86.7812C303.625 82.8854 301.906 77.3854 301.906 70.2812V68.0312C301.906 63.5729 302.677 59.6771 304.219 56.3438C305.781 52.9896 308.021 50.4062 310.938 48.5938C313.854 46.7604 317.229 45.8438 321.062 45.8438C326.583 45.8438 331.021 47.3021 334.375 50.2188C337.729 53.1146 339.635 57.1146 340.094 62.2188H329.156C329.073 59.4479 328.375 57.4583 327.062 56.25C325.75 55.0417 323.75 54.4375 321.062 54.4375C318.333 54.4375 316.333 55.4583 315.062 57.5C313.792 59.5417 313.125 62.8021 313.062 67.2812V70.5C313.062 75.3542 313.667 78.8229 314.875 80.9062C316.104 82.9896 318.208 84.0312 321.188 84.0312C323.708 84.0312 325.635 83.4375 326.969 82.25C328.302 81.0625 329.01 79.1771 329.094 76.5938H340ZM373.406 72.7188H356.156V83.5625H376.531V92H345.188V46.5H376.594V54.9688H356.156V64.5625H373.406V72.7188ZM419 92H408.094L391.969 63.6875V92H381V46.5H391.969L408.062 74.8125V46.5H419V92ZM464.469 70.1875C464.469 74.625 463.646 78.5521 462 81.9688C460.354 85.3854 458.01 88.0208 454.969 89.875C451.948 91.7083 448.5 92.625 444.625 92.625C440.75 92.625 437.312 91.7396 434.312 89.9688C431.312 88.1771 428.969 85.625 427.281 82.3125C425.615 79 424.74 75.1979 424.656 70.9062V68.3438C424.656 63.8854 425.469 59.9583 427.094 56.5625C428.74 53.1458 431.083 50.5104 434.125 48.6562C437.188 46.8021 440.667 45.875 444.562 45.875C448.417 45.875 451.854 46.7917 454.875 48.625C457.896 50.4583 460.24 53.0729 461.906 56.4688C463.594 59.8438 464.448 63.7188 464.469 68.0938V70.1875ZM453.312 68.2812C453.312 63.7604 452.552 60.3333 451.031 58C449.531 55.6458 447.375 54.4688 444.562 54.4688C439.062 54.4688 436.156 58.5938 435.844 66.8438L435.812 70.1875C435.812 74.6458 436.552 78.0729 438.031 80.4688C439.51 82.8646 441.708 84.0625 444.625 84.0625C447.396 84.0625 449.531 82.8854 451.031 80.5312C452.531 78.1771 453.292 74.7917 453.312 70.375V68.2812ZM505.375 75.0312L510.594 46.5H521.469L511.812 92H500.438L494.344 66.0625L488.375 92H477.031L467.344 46.5H478.25L483.469 75.0312L489.719 46.5H499.031L505.375 75.0312ZM542.406 66.25L550.781 46.5H562.625L547.969 75.6562V92H536.844V75.6562L522.219 46.5H534L542.406 66.25Z" fill="white"/>
<path d="M110 47L90 101" stroke="#F5804E" stroke-width="3"/>
</g>
<defs>
<clipPath id="clip0">
<rect width="1600" height="90" fill="white"/>
</clipPath>
</defs>
</svg>
